<svg width="141" height="139" viewBox="0 0 141 139" fill="none" xmlns="http://www.w3.org/2000/svg">
<g id="Logo" clip-path="url(#clip0_1_110)">
<g id="Group">
<path id="Combined-Shape" fill-rule="evenodd" clip-rule="evenodd" d="M108.624 0L108.624 32.8066L141 32.8065L141 130.489H11.1277V0H108.624Z" fill="#F8F2EC"/>
<path id="Shape" d="M129.144 139H0V11.8672L11.1277 0H108.624L108.624 32.8066L141 32.8065V130.489L129.144 139ZM96.7677 11.8672H22.9835V118.621H129.144V44.6733L96.7682 44.6738L96.7677 11.8672Z" fill="#2E2E41"/>
</g>
<g id="Group-3">
<path id="Rectangle" d="M85.1078 23.7345H69.0178V56.3693H85.1078V23.7345Z" fill="#2E2E41"/>
<path id="Rectangle_2" d="M55.0449 23.7345H38.9548V56.3693H55.0449V23.7345Z" fill="#2E2E41"/>
</g>
<path id="Combined-Shape_2" fill-rule="evenodd" clip-rule="evenodd" d="M113.054 69.9319V102.991H38.9553V69.9319H113.054ZM104.586 78.4084H88.4957V94.9378H104.586V78.4084Z" fill="#2E2E41"/>
</g>
<defs>
<clipPath id="clip0_1_110">
<rect width="141" height="139" fill="white"/>
</clipPath>
</defs>
</svg>
